<svg width="70" height="70" viewBox="0 0 70 70" fill="none" xmlns="http://www.w3.org/2000/svg">
<path d="M35 0C28.0777 0 21.3108 2.05271 15.5551 5.89856C9.79933 9.74441 5.3133 15.2107 2.66423 21.6061C0.0151649 28.0015 -0.677952 35.0388 0.672531 41.8281C2.02301 48.6175 5.35644 54.8539 10.2513 59.7487C15.1461 64.6436 21.3825 67.977 28.1719 69.3275C34.9612 70.6779 41.9985 69.9848 48.3939 67.3358C54.7893 64.6867 60.2556 60.2007 64.1014 54.4449C67.9473 48.6892 70 41.9223 70 35C70 30.4037 69.0947 25.8525 67.3358 21.6061C65.5769 17.3597 62.9988 13.5013 59.7487 10.2513C56.4987 7.00121 52.6403 4.42313 48.3939 2.66422C44.1475 0.905302 39.5963 0 35 0ZM35 63C29.4621 63 24.0486 61.3578 19.444 58.2811C14.8395 55.2045 11.2506 50.8315 9.13139 45.7151C7.01213 40.5988 6.45764 34.9689 7.53803 29.5375C8.61841 24.106 11.2852 19.1169 15.201 15.201C19.1169 11.2851 24.106 8.6184 29.5375 7.53801C34.9689 6.45762 40.5988 7.01212 45.7151 9.13137C50.8315 11.2506 55.2045 14.8395 58.2811 19.444C61.3578 24.0486 63 29.4621 63 35C63 42.4261 60.05 49.548 54.799 54.799C49.548 60.05 42.4261 63 35 63ZM49 31.5H38.5V21C38.5 20.0717 38.1313 19.1815 37.4749 18.5251C36.8185 17.8687 35.9283 17.5 35 17.5C34.0718 17.5 33.1815 17.8687 32.5251 18.5251C31.8688 19.1815 31.5 20.0717 31.5 21V31.5H21C20.0718 31.5 19.1815 31.8687 18.5251 32.5251C17.8688 33.1815 17.5 34.0717 17.5 35C17.5 35.9282 17.8688 36.8185 18.5251 37.4749C19.1815 38.1312 20.0718 38.5 21 38.5H31.5V49C31.5 49.9282 31.8688 50.8185 32.5251 51.4749C33.1815 52.1312 34.0718 52.5 35 52.5C35.9283 52.5 36.8185 52.1312 37.4749 51.4749C38.1313 50.8185 38.5 49.9282 38.5 49V38.5H49C49.9283 38.5 50.8185 38.1312 51.4749 37.4749C52.1313 36.8185 52.5 35.9282 52.5 35C52.5 34.0717 52.1313 33.1815 51.4749 32.5251C50.8185 31.8687 49.9283 31.5 49 31.5Z" fill="black"/>
</svg>
